<?xml version="1.0" standalone="no"?>
<!DOCTYPE svg PUBLIC "-//W3C//DTD SVG 20010904//EN"
 "http://www.w3.org/TR/2001/REC-SVG-20010904/DTD/svg10.dtd">
<svg version="1.0" xmlns="http://www.w3.org/2000/svg"
 width="1126.000000pt" height="630.000000pt" viewBox="0 0 1126.000000 630.000000"
 preserveAspectRatio="xMidYMid meet">
<metadata>
Created by potrace 1.15, written by Peter Selinger 2001-2017
</metadata>
<g transform="translate(0.000000,630.000000) scale(0.100000,-0.100000)"
fill="#000000" stroke="none">
<path d="M0 3150 l0 -3150 5630 0 5630 0 0 3150 0 3150 -5630 0 -5630 0 0
-3150z m5305 2850 c44 -11 123 -41 175 -66 79 -39 109 -61 177 -129 69 -70 89
-99 132 -186 75 -155 95 -263 88 -477 -5 -191 -23 -275 -86 -407 -123 -258
-336 -401 -646 -435 -55 -6 -124 -22 -177 -42 -48 -18 -86 -33 -85 -35 2 -1
91 -10 197 -19 240 -20 470 -15 575 14 114 31 171 67 228 143 20 27 33 36 47
32 27 -7 27 -64 0 -167 -36 -137 -84 -211 -172 -263 -72 -43 -154 -63 -263
-63 -150 0 -245 29 -618 184 -87 36 -167 66 -178 66 -11 0 -36 -7 -57 -16 -58
-25 -181 -30 -220 -10 -28 15 -32 21 -32 59 0 48 6 59 37 76 30 16 160 14 218
-3 46 -14 51 -14 131 16 46 16 84 33 84 37 0 4 -25 13 -56 20 -88 20 -222 93
-297 161 -169 155 -249 361 -249 645 -1 235 41 393 145 553 105 160 296 288
482 321 33 6 71 13 85 15 54 10 258 -5 335 -24z m1426 -439 c134 -42 209 -133
209 -253 0 -145 -97 -267 -275 -345 -29 -13 -42 -22 -30 -23 91 -1 249 -74
310 -142 62 -69 79 -127 73 -247 -7 -128 -37 -190 -141 -287 -117 -108 -249
-178 -437 -229 -91 -25 -284 -54 -362 -55 l-38 0 0 44 0 44 83 12 c166 24 293
80 393 173 117 109 160 210 152 352 -7 97 -28 144 -91 202 -63 58 -113 72
-177 49 -60 -21 -109 -24 -121 -5 -12 17 -4 78 11 93 6 6 43 12 81 12 70 2 71
2 119 49 135 133 148 317 27 385 -34 20 -56 24 -117 24 -113 0 -200 -46 -277
-147 -18 -23 -25 -26 -41 -18 -17 9 -19 16 -12 46 26 114 184 247 333 281 85
19 242 12 328 -15z m482 -2310 c43 -10 83 -23 87 -27 5 -5 6 -56 2 -114 l-7
-105 -47 -3 -46 -3 -12 75 c-12 70 -15 76 -43 85 -43 16 -123 13 -157 -4 -37
-19 -50 -43 -50 -91 0 -51 42 -88 183 -160 188 -95 237 -151 237 -270 -1 -101
-52 -179 -149 -225 -72 -34 -213 -38 -338 -9 -54 12 -102 25 -106 29 -4 4 -5
58 -1 119 l7 112 48 0 c54 0 51 4 67 -95 10 -69 45 -87 154 -83 69 3 80 6 107
32 25 24 31 38 31 73 0 59 -38 94 -182 165 -172 86 -228 154 -228 281 0 108
76 200 187 226 64 15 174 12 256 -8z m-2858 -256 c97 -146 185 -285 196 -310
11 -25 22 -45 24 -45 3 0 5 115 5 255 l0 254 -50 7 -50 7 0 48 0 49 145 0 145
0 0 -49 0 -49 -45 -6 -45 -7 0 -380 0 -379 -72 0 -73 1 -72 107 c-189 284
-279 423 -314 487 l-39 70 0 -282 0 -283 24 0 c13 0 38 -3 55 -6 29 -6 31 -9
31 -50 l0 -44 -155 0 -155 0 0 44 c0 46 11 56 68 56 l22 0 0 329 0 329 -45 6
-45 7 0 50 0 49 135 0 134 0 176 -265z m1099 188 c3 -42 6 -91 6 -110 0 -34 0
-34 -42 -31 -41 3 -42 4 -61 61 l-19 57 -119 0 -119 0 0 -140 0 -140 75 0 74
0 6 38 c10 60 12 62 55 62 l40 0 0 -150 0 -150 -40 0 c-37 0 -40 2 -49 38 -6
20 -11 43 -11 50 0 8 -22 12 -75 12 l-75 0 0 -145 0 -146 137 3 137 3 26 60
c36 87 34 85 78 73 40 -11 54 -25 48 -48 -3 -8 -10 -54 -16 -102 l-12 -88
-335 0 -334 0 3 43 c3 41 4 42 43 47 l40 5 3 331 2 332 -22 6 c-13 3 -33 6
-45 6 -21 0 -23 5 -23 50 l0 50 309 0 308 0 7 -77z m414 25 l-3 -53 -38 -3
c-21 -2 -40 -9 -43 -16 -3 -7 27 -125 65 -262 38 -137 73 -267 77 -289 l8 -40
11 55 c10 44 66 239 124 430 8 26 -4 86 -21 107 -5 6 -24 13 -41 15 -31 3 -32
5 -35 56 l-3 52 185 0 186 0 0 -49 c0 -54 -8 -61 -66 -61 -25 0 -34 -4 -34
-16 0 -9 32 -129 71 -266 39 -136 73 -265 76 -284 7 -43 18 -29 28 36 3 25 17
86 30 135 76 290 95 364 95 378 0 11 -12 17 -42 19 l-43 3 -3 53 -3 52 140 0
141 0 0 -50 c0 -52 -1 -53 -51 -64 -21 -4 -27 -15 -38 -58 -8 -29 -49 -172
-91 -318 -43 -146 -85 -291 -94 -322 l-17 -58 -79 0 -79 0 -26 88 c-14 48 -37
121 -50 162 -13 41 -36 117 -51 168 l-28 93 -32 -108 c-17 -59 -44 -151 -58
-203 -15 -52 -34 -119 -42 -147 l-15 -53 -79 0 -79 0 -46 148 c-25 81 -55 174
-65 207 -98 312 -124 391 -134 397 -6 4 -21 8 -33 8 -21 0 -23 5 -23 55 l0 55
176 0 175 0 -3 -52z m-4014 -1494 c14 -5 16 -39 16 -273 l1 -266 79 84 c44 46
80 88 80 92 0 5 -9 9 -20 9 -17 0 -20 7 -20 45 l0 45 135 0 135 0 0 -44 c0
-43 0 -43 -41 -49 -33 -4 -53 -16 -95 -58 -30 -30 -54 -58 -54 -64 1 -18 155
-268 170 -276 8 -4 23 -10 33 -13 12 -4 17 -16 17 -46 l0 -40 -140 0 -140 0 0
41 c0 33 4 42 20 46 12 3 19 8 18 12 -13 26 -79 149 -87 161 -9 12 -17 8 -51
-25 -37 -36 -40 -43 -40 -92 0 -52 0 -53 30 -53 29 0 30 -2 30 -45 l0 -45
-135 0 -135 0 0 45 c0 43 1 45 30 45 l30 0 -2 328 -3 327 -25 3 c-37 6 -50 21
-50 58 0 32 2 33 48 39 26 3 54 8 62 9 28 6 88 6 104 0z m4876 -9 c8 -10 11
-56 8 -162 l-3 -148 64 33 c50 25 76 32 122 32 94 0 140 -29 159 -101 9 -32
21 -278 20 -390 0 -10 11 -19 30 -23 27 -5 30 -9 30 -46 l0 -40 -136 0 -135 0
3 43 c2 35 7 43 26 45 22 3 22 5 22 172 0 192 -6 216 -56 226 -37 7 -66 0
-111 -28 l-33 -20 0 -173 0 -173 30 -6 c27 -5 30 -9 30 -46 l0 -40 -135 0
-135 0 0 40 c0 37 3 41 30 47 l30 6 0 328 0 329 -24 0 c-45 0 -56 10 -56 50
l0 39 58 6 c31 3 64 8 72 9 39 9 79 5 90 -9z m1714 9 c14 -5 16 -39 16 -270 0
-153 4 -264 9 -264 5 0 11 4 13 9 2 6 36 43 76 84 39 41 72 77 72 80 0 3 -10
7 -22 9 -19 2 -24 10 -26 46 l-3 42 135 0 136 0 0 -44 c0 -43 0 -43 -41 -49
-30 -4 -54 -18 -94 -54 -29 -26 -53 -54 -54 -61 -1 -7 35 -74 79 -150 67 -115
85 -138 108 -142 24 -4 27 -10 30 -48 l3 -42 -140 0 -141 0 0 41 c0 32 4 42
20 46 11 3 20 7 20 9 0 10 -92 174 -98 174 -3 0 -23 -17 -44 -37 -34 -34 -38
-42 -38 -89 0 -50 1 -53 28 -56 24 -3 27 -7 30 -45 l3 -43 -136 0 -136 0 3 43
c3 38 6 42 31 45 l27 3 0 329 0 328 -35 6 c-33 7 -35 9 -35 46 0 39 0 39 48
45 26 3 54 8 62 9 28 6 78 6 94 0z m-1024 -24 c31 -31 28 -109 -6 -144 -30
-29 -86 -35 -117 -12 -41 32 -41 113 0 158 23 26 97 24 123 -2z m-7016 -58 c6
-11 115 -411 131 -482 l12 -55 12 60 c7 33 37 150 67 259 30 110 54 206 54
213 0 10 35 13 165 13 l165 0 0 -44 0 -45 -55 -6 c-55 -7 -55 -7 -50 -39 8
-52 43 -315 55 -416 15 -128 21 -140 65 -140 35 0 35 0 35 -45 l0 -45 -166 0
-165 0 3 43 c3 42 3 42 46 45 l42 3 -5 37 c-3 20 -16 149 -30 286 -14 137 -26
251 -28 252 -2 2 -16 -46 -31 -106 -15 -61 -42 -161 -60 -223 -18 -61 -46
-156 -61 -209 l-28 -98 -57 0 -56 0 -32 108 c-133 439 -161 525 -165 512 -3
-8 -13 -109 -21 -225 -9 -115 -19 -238 -23 -272 l-6 -62 49 -3 49 -3 3 -42 3
-43 -145 0 -146 0 0 44 0 45 42 3 43 3 32 260 c43 349 44 322 -17 330 l-50 7
0 44 0 44 159 0 c88 0 162 -4 165 -8z m3476 -33 c0 -36 -3 -41 -30 -50 -16 -6
-30 -13 -30 -14 0 -2 32 -68 70 -146 39 -78 70 -136 70 -130 0 6 27 68 60 138
33 69 60 129 60 134 0 4 -13 10 -30 14 -28 6 -30 10 -30 51 l0 44 125 0 125 0
0 -44 c0 -41 -2 -45 -30 -51 -33 -7 -39 -15 -135 -200 -37 -71 -74 -139 -81
-150 -10 -13 -14 -54 -14 -132 l0 -112 53 -3 52 -3 3 -42 3 -43 -191 0 -191 0
3 43 3 42 48 3 47 3 0 110 0 109 -97 168 c-53 92 -101 174 -106 184 -6 9 -23
19 -39 22 -26 5 -28 9 -28 51 l0 45 155 0 155 0 0 -41z m2594 -36 c3 -42 6
-111 6 -153 l0 -78 -36 -7 c-24 -4 -39 -2 -44 5 -4 6 -15 58 -25 116 l-18 104
-68 0 -69 0 0 -300 0 -299 68 -3 67 -3 3 -42 3 -43 -216 0 -216 0 3 43 3 42
63 3 62 3 0 299 0 300 -69 0 -69 0 -11 -62 c-6 -35 -14 -84 -17 -111 -7 -52
-28 -66 -80 -53 -25 7 -25 8 -20 74 3 37 8 106 12 155 l6 87 327 0 328 0 7
-77z m3230 0 c11 -137 12 -133 -37 -133 l-44 0 -18 60 -18 60 -109 0 -108 0 0
-130 0 -130 74 0 75 0 7 45 c6 44 7 45 45 45 l39 0 0 -141 0 -140 -37 3 c-37
3 -38 5 -47 51 l-8 47 -74 0 -74 0 0 -125 0 -125 80 0 80 0 0 -45 0 -45 -196
0 -195 0 3 43 c3 41 4 42 41 45 l37 3 0 294 0 295 -22 4 c-13 3 -32 7 -43 8
-16 3 -21 12 -23 46 l-3 42 284 0 284 0 7 -77z m1350 21 c3 -9 6 -42 6 -75 l0
-59 75 0 75 0 0 -50 0 -50 -75 0 -75 0 0 -185 c0 -176 1 -185 21 -195 15 -8
34 -8 71 0 28 6 52 9 53 8 1 -2 8 -13 14 -26 21 -40 5 -60 -66 -82 -116 -36
-200 -23 -227 35 -13 27 -16 72 -16 239 l0 206 -35 0 c-34 0 -35 1 -35 38 0
34 4 38 40 54 41 17 62 52 76 123 6 33 8 35 49 35 30 0 45 -5 49 -16z m-9557
-150 c62 -46 67 -69 71 -291 l4 -203 24 0 c21 0 24 -5 24 -39 0 -45 -11 -51
-105 -51 -63 0 -85 11 -85 42 0 16 -5 15 -42 -9 -36 -25 -51 -28 -119 -28 -62
0 -83 4 -106 21 -59 43 -89 149 -62 221 27 72 118 120 247 130 70 6 72 7 72
33 0 35 -32 68 -74 76 -39 7 -123 -9 -166 -31 -29 -15 -30 -14 -45 14 -32 63
-20 80 82 117 57 20 83 24 160 22 75 -2 97 -7 120 -24z m1220 -10 c58 -46 77
-94 76 -190 0 -45 -3 -86 -7 -93 -5 -7 -58 -11 -167 -11 -87 0 -159 -3 -159
-7 0 -5 5 -25 10 -45 25 -89 99 -130 194 -107 28 7 61 18 73 26 19 13 23 12
32 -6 19 -35 13 -68 -16 -89 -98 -69 -273 -69 -357 0 -49 40 -74 92 -88 183
-19 123 12 244 79 307 54 51 109 69 205 66 79 -3 89 -5 125 -34z m523 23 l45
-12 0 -80 0 -80 -42 -3 c-41 -3 -42 -2 -48 32 -9 48 -36 69 -89 70 -48 1 -86
-23 -86 -55 0 -17 53 -69 71 -69 29 0 163 -77 195 -112 36 -40 36 -41 32 -115
-3 -73 -5 -76 -45 -113 -23 -22 -59 -44 -84 -50 -55 -15 -186 -8 -256 14 l-53
17 0 79 0 80 43 0 c42 0 44 -1 57 -41 15 -45 50 -69 99 -69 69 0 112 50 77 89
-9 10 -49 33 -89 51 -113 52 -146 77 -168 123 -47 105 -7 208 96 245 40 14
189 13 245 -1z m1444 -1 c46 -19 104 -72 129 -120 19 -36 22 -56 22 -166 0
-137 -6 -156 -67 -225 -44 -51 -101 -77 -180 -83 -88 -6 -147 11 -202 59 -81
71 -115 211 -82 339 26 102 77 161 171 197 42 16 169 16 209 -1z m420 8 c14
-5 16 -34 16 -220 0 -139 4 -222 11 -238 23 -49 111 -54 160 -10 17 15 19 34
19 190 l0 173 -35 7 c-33 6 -35 8 -35 49 l0 42 94 7 c51 3 101 3 110 0 14 -5
16 -35 16 -258 l0 -253 23 1 c19 1 22 -5 25 -40 3 -39 1 -42 -29 -48 -84 -16
-149 -2 -149 34 0 24 -17 26 -41 4 -27 -24 -88 -43 -141 -44 -68 0 -123 25
-150 69 -22 34 -23 49 -26 233 l-4 196 -24 6 c-21 6 -24 12 -24 51 l0 44 63 4
c34 2 72 4 84 5 12 1 28 -1 37 -4z m2324 -6 c9 -9 12 -79 12 -255 0 -233 1
-243 19 -243 40 0 51 -11 51 -51 l0 -39 -146 0 -145 0 3 43 c3 39 5 42 36 45
l32 3 0 189 0 189 -35 7 c-34 6 -35 7 -35 55 l0 48 43 5 c23 3 53 7 67 10 53
7 86 6 98 -6z m330 0 c7 -7 12 -22 12 -35 l0 -23 56 31 c104 59 243 49 278
-20 24 -45 36 -149 36 -307 l0 -141 30 -6 c27 -6 30 -10 30 -47 l0 -40 -135 0
-135 0 0 40 c0 34 4 41 25 46 l25 6 0 169 c0 191 -6 215 -56 225 -37 7 -66 0
-111 -28 l-33 -20 0 -173 0 -172 30 -6 c27 -6 30 -10 30 -47 l0 -40 -135 0
-135 0 0 40 c0 37 3 41 30 47 l30 6 0 182 0 183 -35 12 c-33 11 -35 14 -35 55
0 24 6 47 13 52 33 20 167 29 185 11z m2390 -8 c34 -15 47 -29 64 -67 19 -42
22 -72 26 -240 l5 -193 23 0 c21 0 24 -5 24 -39 0 -37 -2 -39 -37 -45 -21 -3
-60 -6 -86 -6 -45 0 -50 2 -60 30 -11 28 -27 41 -27 21 0 -16 -98 -51 -142
-51 -57 1 -120 30 -148 71 -33 46 -35 163 -4 206 41 55 159 103 257 103 47 0
47 0 47 33 0 72 -79 94 -200 58 -40 -12 -73 -21 -75 -19 -11 14 -25 50 -25 67
0 22 51 54 125 77 63 20 182 17 233 -6z m560 5 l52 -16 0 -74 c0 -69 -2 -75
-22 -80 -45 -10 -62 0 -78 45 -13 37 -21 45 -50 53 -50 13 -108 -6 -116 -39
-9 -37 17 -60 131 -113 142 -67 172 -107 163 -217 -9 -106 -100 -161 -252
-151 -44 3 -105 12 -133 21 l-53 17 0 79 0 80 43 0 c41 0 43 -1 57 -42 17 -49
46 -68 105 -68 83 0 113 58 53 103 -18 14 -58 35 -88 48 -129 54 -165 98 -165
201 0 64 2 69 36 103 19 20 53 42 75 50 52 19 178 19 242 0z"/>
<path d="M4980 5931 c-54 -17 -89 -42 -142 -100 -124 -134 -190 -362 -191
-661 -1 -183 13 -277 59 -422 55 -170 141 -285 254 -341 70 -34 178 -31 248 8
140 76 237 267 273 535 18 133 6 435 -20 535 -62 231 -146 360 -276 427 -43
23 -161 34 -205 19z"/>
<path d="M1325 1124 c-73 -27 -96 -88 -52 -140 28 -32 71 -35 117 -8 29 18 30
21 30 91 l0 73 -27 -1 c-16 0 -46 -7 -68 -15z"/>
<path d="M2507 1350 c-25 -20 -47 -73 -47 -112 0 -16 11 -18 96 -18 l97 0 -6
53 c-10 86 -79 124 -140 77z"/>
<path d="M4513 1352 c-38 -29 -53 -83 -53 -188 0 -115 14 -167 53 -200 50 -42
110 -26 144 39 24 48 30 199 9 269 -25 88 -96 125 -153 80z"/>
<path d="M9994 1126 c-41 -18 -74 -54 -74 -82 0 -40 22 -73 56 -84 27 -9 39
-8 73 10 l41 20 0 75 0 75 -32 0 c-18 -1 -47 -7 -64 -14z"/>
</g>
</svg>
